<svg xmlns="http://www.w3.org/2000/svg" viewBox="0 0 453.8 611.8"><defs><style>.cls-1{fill:#23283b;}.cls-2{fill:#fdfdfd;}.cls-3{fill:#fbfdfd;}.cls-4{fill:#fbfbfb;}.cls-5{fill:#fcfdfc;}.cls-6{fill:#fcfcfc;}.cls-7{fill:#fcfcfd;}.cls-8{fill:#f4f5f5;}.cls-9{fill:#fafbfb;}.cls-10{fill:#f1f2f3;}.cls-11{fill:#edeeef;}.cls-12{fill:#f2f2f2;}.cls-13{fill:#252a3c;}</style></defs><g id="Capa_2" data-name="Capa 2"><g id="Capa_2-2" data-name="Capa 2"><path class="cls-1" d="M453.8,224.93v9C452,244.62,445,252.78,440,261.9c-14.31,26.51-29.15,52.74-43.1,79.43-12.49,23.88-25.57,47.49-37.07,71.87-5.65,12-11.9,23.38-20.24,33.65a16.64,16.64,0,0,0-3.73,7c-2.35,11.93-9,21.72-15.44,31.64-4.07,6.28-8.17,12.56-11.88,19.07a162.56,162.56,0,0,1-32.84,40.53,69.15,69.15,0,0,0-11.82,13.48,33.13,33.13,0,0,1-10.72,10.32c-9.59,5.78-16.31,14-21.46,23.78a69.66,69.66,0,0,1-9.58,14,22.2,22.2,0,0,1-7.24,5.15h-2c-8.7-2.46-13.41-9.54-18.27-16.22-11.45-15.75-22.06-32.09-33.78-47.64-7.51-10-14.79-20.12-23-29.53-3.54-4-6.08-8.71-8.57-13.44-6.85-13-11-27.07-17.25-40.3a9.09,9.09,0,0,1-1-3.33c-.93-17.35-10.3-31.46-18-46.07-22.11-41.79-44-83.67-66.5-125.26Q16.13,270.89,5.83,251.77C3,246.44,1.35,240.74,0,234.92v-8a33.34,33.34,0,0,1,5.24-10.64c8.87-11.26,16.55-23.38,25.1-34.87,2.39-3.21,4.85-6.42,6.39-10.12,4.78-11.54,13.5-19.62,23.13-26.94,4.68-3.56,7.28-8.1,7.28-14.05,0-3,0-6,0-9a19.59,19.59,0,0,1,5.4-13.06c10.8-12,22.29-23.39,32.57-35.86a24.22,24.22,0,0,1,4.39-4.07c4.82-3.52,7.84-3.48,12.64.18,7.35,5.58,13.35,12.52,19.35,19.42,3.5,4,7.46,7.62,10.77,11.81,1.79,2.25,3.39,2.31,5.21,0,4.29-5.31,8.95-10.31,13.14-15.71,3.18-4.11,3.57-9.17,3.23-13.83-.73-10.06,2.67-18.43,8-26.68,7.45-11.64,13.82-23.94,20.81-35.87C205,3.61,208,.56,212.91,0h4c4.53.47,7.07,3.52,9.72,6.88C241,25.23,253.48,45,267,64c8.69,12.23,19.31,22.92,27.92,35.21,2,2.78,3.49,1.62,5-.47q12.11-17.13,24.57-34c.4-.53.72-1.12,1.1-1.67,9.15-13.15,19.86-12.82,28.71.58,23.94,36.25,47.22,72.94,71.06,109.26,4.64,7.07,9.36,14.16,13.1,21.82a65.94,65.94,0,0,0,6.52,10.62C449.34,211.16,453.16,217.34,453.8,224.93Z"/><path class="cls-2" d="M111.56,88.56c6.74,9,2.86,16.4-2,23.4-8,11.53-8.84,25.14-11.59,38.2q-1.68,8-3,16c-.3,1.78-1.38,2.48-2.77,3.13C81.15,174.37,76,184,71.75,194.8c-4.87,12.43-10.9,24.41-16.47,36.68a1,1,0,0,0,1.55,0c11.38-10.68,22.74-21.4,34.17-32,.91-.85,1.52-3.23,3.69-1,1.16,1.2,2-.75,2.61-1.45,20.14-21.51,40.89-42.43,61.43-63.56,5-5.17,9.17-11.27,13.31-17.24,3.76-5.42,8.62-9.47,13.94-13.16,3.8-2.64,5.1-5.94,4.41-10.93-1.34-9.66-1.61-19.46-2.34-29.2a7.14,7.14,0,0,1,1.3-4.21C197,45.6,204.74,32.5,212.88,18.66c3.79,9.69,7.34,18.74,10.87,27.8.47,1.21-.19,2.14-.77,3.19-6.35,11.31-6.62,24.15-9,36.44-1.36,6.92-2.07,14-3.35,20.9-.94,5.08-10,13.39-14.94,13.92-1.83.19-2.6,1.33-3.34,2.58-2,3.37-3.9,6.77-5.8,10.18a72.42,72.42,0,0,1-16.06,19.88,34.52,34.52,0,0,0-10.15,15.39c-4.24,12.17-8.87,24.2-13.33,36.3a8.67,8.67,0,0,0,.12,2c14.54-12.51,26.72-26.59,40.3-39.1,2.52,1.57,3.77,4.24,5.4,6.47,2.06,2.82,2.94,2.88,5.38.23,10.34-11.28,21-22.23,31.48-33.39,1.41-1.51,2.08-1.41,3.47,0,27.8,28.23,55.86,56.21,83,85.07,4,4.25,8.29,8.21,12.21,12.52,2,2.16,3.09,1.91,5.06-.05,15-14.87,30.27-29.53,45.23-44.47,3-3,4.52-2.93,7.36.19,9.95,11,20.34,21.53,30.36,32.44,3.71,4,8.17,7.84,7.53,14.39a22.19,22.19,0,0,1-3,8.75q-26.39,47.69-53.61,94.91c-11,19-22.19,37.81-32,57.37-4.5,9-10.86,12.7-19.78,14.35-6.48,1.19-6.23,1.29-6.8-5.54-.65-7.87.54-15.74-.09-23.57-1.16-14.42-.64-28.85-.77-43.27-.07-8.08-.43-16.18,1.25-24.29a5.38,5.38,0,0,1,1.05.59c9,8,12.62,6.69,20.63-3.65,2.42-3.13,2.65-5.95-.91-8.89-6.15-5.06-11.87-10.64-17.92-15.83a8.57,8.57,0,0,1-3.48-7.16c0-15.27-.24-30.55-.42-45.82-.06-5.46-1.31-6.69-6.59-5.33a21.77,21.77,0,0,1-10.32.41c-4-1-3.69.84-3.68,3.34,0,10.27,0,20.54,0,31.88-4.56-3.92-8.29-7.61-12.14-11.05-11.16-10-21.89-20.4-32.83-30.61-3.4-3.17-6.78-6.38-10.41-9.28-5.41-4.32-11.24-3.54-18.08,2.52-15.78,14-31.41,28.14-47.19,42.12q-24.24,21.48-48.66,42.73c-6.57,5.71-9.69,15.71-6.93,24.14,1.35,4.14,4.38,5.71,8.76,5.69,9,0,8.86.13,9,9,.07,5.28-.91,10.63.77,15.86a16.57,16.57,0,0,0,16.16,12c5,0,10,0,15,0,1.74,0,3.84-.54,4,2.37s-1.85,2.74-3.68,2.6c-11-.83-23.33,8.47-22.31,22.06.12,1.68.18,3.57-2.06,3.88-2.58.35-5.12,2.64-7.83-.09-8-8.13-15.49-16.78-24.14-24.36-3.47-3.05-5-8.37-7.31-12.68-21.41-39.62-42.72-79.29-64.26-118.84-5.34-9.8-5.9-18.9.52-28.5,4.9-7.32,8.84-15.29,13.4-22.86,2.2-3.65,6.38-5.08,9.66-7.5,2.06-1.52,3.65-2.94,3-5.54-2.56-10.77,3.33-17.45,11.2-23,3.86-2.72,6.67-6.51,10.4-9.27,1.75-1.29,1.45-2.86,1.4-4.44-.25-7.32-.58-14.63-.92-21.95-.08-1.85-.2-3.82,1.08-5.23C92.56,109.16,102.1,98.84,111.56,88.56Z"/><path class="cls-3" d="M334.79,76.66c4.26,9.46,8,18,12,26.51,1,2.15.52,3.7-.46,5.48-3.26,5.92-6.24,12-9.82,17.73a5.41,5.41,0,0,0-.22,6.3c2.77,4.89,5.34,9.9,8.44,14.58,2.46,3.73,3,7,.19,10.74a61.54,61.54,0,0,0-3.77,6.46c-9.94-13.7-19.71-26.82-29.11-40.2-7-10-6.78-10.12,1-20C320.17,95.33,327.2,86.32,334.79,76.66Z"/><path class="cls-2" d="M163.4,335.56c-6.16,0-12.31-.1-18.47.05-2.33.05-3.23-.54-3.17-3,.16-7.65.11-15.31.13-23,0-3.91,2-5.73,5.85-5.73l32.44,0c3.79,0,5.85,1.58,5.78,5.7-.14,7.48-.16,15,0,22.46.07,2.82-.79,3.76-3.62,3.69-6.32-.17-12.64-.06-19-.06Z"/><path class="cls-4" d="M164,348c6.16,0,12.32.12,18.48-.05,2.61-.07,3.33.75,3.42,3.37.35,11-.07,11.46-11.22,11.29-8.15-.12-16.31,0-24.46,0A9.29,9.29,0,0,1,142,348.91c.76-1.4,2-.93,3-.94C151.39,347.93,157.72,348,164,348Z"/><path class="cls-5" d="M172,412.84c.5,0,1,0,1.5,0,3.93.29,10.42-1.58,11.28.68,1.75,4.65.81,10.44.4,15.72-.2,2.56-2.61,3.59-5.24,3.57-6.16,0-12.32-.15-18.46.06-2.75.09-3.51-1.05-3.43-3.47s0-4.66.06-7c.21-9.61.22-9.61,9.9-9.6Z"/><path class="cls-6" d="M238.27,278.58c0,7.12-6,13.25-12.88,13.2s-13.27-6.59-13.19-13.64c.08-6.82,6.39-13,13.26-12.91S238.31,271.56,238.27,278.58Z"/><path class="cls-6" d="M249.27,334c-.22-11.11-.22-11.11,10.92-11.11,11.69,0,11.69,0,11.69,12,0,11.33,0,11.41-11.46,11-3.58-.15-8.42,1.82-10.38-.73-1.8-2.35-.63-7-.77-10.6C249.26,334.35,249.27,334.19,249.27,334Z"/><path class="cls-6" d="M242.9,334.76c0,11.09,0,11.09-10.81,11.08-11.77,0-11.77,0-11.84-11.75-.07-10.91-.07-10.91,10.76-10.91h.5C242.9,323.19,242.9,323.19,242.9,334.76Z"/><path class="cls-7" d="M231.58,352.82c11.23,0,11.23,0,11.25,11.33,0,10.72,0,10.72-10.83,10.74-11.41,0-11.41,0-11.74-10.46C219.89,352.81,219.89,352.81,231.58,352.82Z"/><path class="cls-2" d="M260.4,353c11.48-.13,11.48-.13,11.48,11.31,0,10.6,0,10.6-10.85,10.61-11.09,0-11.09,0-11.31-11.2-.07-3.57-.12-7.14-.18-10.72Z"/><path class="cls-8" d="M171.44,404.6c-3.5,0-7-.15-10.48,0-2.53.15-3-.89-3.07-3.17,0-2.49,1.21-2.61,3.08-2.6q10.49.08,21,0c2.08,0,3.38.22,3.39,2.86s-1.31,3-3.42,2.94c-3.49-.09-7,0-10.47,0Z"/><path class="cls-9" d="M171.76,391.92c-3.64,0-7.29,0-10.93,0-1.56,0-3,.09-2.88-2.23.08-1.93.45-3.17,2.72-3.15,7.12,0,14.24.08,21.36,0,2.59,0,3,1.59,3.19,3.45.29,2.59-1.76,1.81-3,1.84-3.47.09-6.95,0-10.43,0Z"/><path class="cls-10" d="M196.05,342.14V317.21C202.36,320.45,202.7,337.16,196.05,342.14Z"/><path class="cls-11" d="M217.3,570.94c-6.59-7.9.3-12.35,3.22-18.07C227,560.45,219.84,565,217.3,570.94Z"/><path class="cls-12" d="M128.87,322.46c.91,3.63-.63,4.79-4.14,4.45-2.48-.25-5.18.46-4.63-3.69.37-2.77-.37-5.7,4.25-5.39C127.69,318.06,130,318.33,128.87,322.46Z"/><path class="cls-13" d="M334.84,95.14c3.6,5.5,4.87,10.51,1.18,15.9-.92,1.35-1.42,3-2.38,4.3-1.26,1.72-1.83,5.78-4.05,4.52s-4.77-4.62-3.61-8A64.73,64.73,0,0,1,334.84,95.14Z"/></g></g></svg>